<svg xmlns="http://www.w3.org/2000/svg">
    <symbol id="arrow-right" viewBox="0 0 28 8">
        <path d="M27.3536 4.35355C27.5488 4.15829 27.5488 3.84171 27.3536 3.64645L24.1716 0.464466C23.9763 0.269204 23.6597 0.269204 23.4645 0.464466C23.2692 0.659728 23.2692 0.976311 23.4645 1.17157L26.2929 4L23.4645 6.82843C23.2692 7.02369 23.2692 7.34027 23.4645 7.53553C23.6597 7.7308 23.9763 7.7308 24.1716 7.53553L27.3536 4.35355ZM0 4.5H27V3.5H0V4.5Z"/>
    </symbol>

    <symbol id="arrow-bot" viewBox="0 0 28 28">
        <g opacity="0.5">
            <path d="M21.6891 19.25L22.75 18.118L14 8.75L5.25 18.118L6.30547 19.25L14 11.0195L21.6891 19.25Z" fill="#323232"/>
        </g>
    </symbol>
</svg>